<?xml version="1.0" standalone="no"?>
<!DOCTYPE svg PUBLIC "-//W3C//DTD SVG 20010904//EN"
 "http://www.w3.org/TR/2001/REC-SVG-20010904/DTD/svg10.dtd">
<svg version="1.0" xmlns="http://www.w3.org/2000/svg"
 width="1024.000000pt" height="768.000000pt" viewBox="0 0 1024.000000 768.000000"
 preserveAspectRatio="xMidYMid meet">

<g transform="translate(0.000000,768.000000) scale(0.100000,-0.100000)"
fill="#000000" stroke="none">
<path d="M298 7673 c7 -3 16 -2 19 1 4 3 -2 6 -13 5 -11 0 -14 -3 -6 -6z"/>
<path d="M450 7670 c0 -5 4 -10 9 -10 6 0 13 5 16 10 3 6 -1 10 -9 10 -9 0
-16 -4 -16 -10z"/>
<path d="M198 7653 c7 -3 16 -2 19 1 4 3 -2 6 -13 5 -11 0 -14 -3 -6 -6z"/>
<path d="M9456 7565 c9 -14 21 -25 27 -25 6 0 0 11 -13 25 -13 14 -25 25 -27
25 -2 0 4 -11 13 -25z"/>
<path d="M10190 7563 c0 -5 5 -15 10 -23 8 -12 10 -11 10 8 0 12 -4 22 -10 22
-5 0 -10 -3 -10 -7z"/>
<path d="M168 7553 c6 -2 18 -2 25 0 6 3 1 5 -13 5 -14 0 -19 -2 -12 -5z"/>
<path d="M10195 7500 c-3 -5 -1 -10 4 -10 6 0 11 5 11 10 0 6 -2 10 -4 10 -3
0 -8 -4 -11 -10z"/>
<path d="M98 7493 c12 -2 30 -2 40 0 9 3 -1 5 -23 4 -22 0 -30 -2 -17 -4z"/>
<path d="M10 7280 c-9 -6 -10 -10 -3 -10 6 0 15 5 18 10 8 12 4 12 -15 0z"/>
<path d="M110 6702 c0 -4 -11 -19 -25 -34 -19 -21 -21 -27 -10 -32 10 -4 15 1
15 14 0 12 7 20 17 20 9 0 13 3 10 7 -4 3 -2 12 4 20 9 9 8 13 0 13 -6 0 -11
-3 -11 -8z"/>
<path d="M40 6610 c-9 -16 -8 -18 5 -14 8 4 15 12 15 20 0 20 -7 17 -20 -6z"/>
<path d="M10231 5914 c0 -11 3 -14 6 -6 3 7 2 16 -1 19 -3 4 -6 -2 -5 -13z"/>
<path d="M2505 5529 c-153 -12 -294 -97 -376 -229 -35 -56 -51 -126 -55 -240
l-4 -115 -93 0 -92 0 0 -115 0 -115 98 -3 97 -3 2 -247 c0 -136 2 -287 4 -337
1 -49 3 -143 3 -208 l1 -118 128 3 127 3 2 450 2 450 131 3 131 3 -3 112 -3
112 -135 5 -135 5 -3 48 c-5 76 15 153 50 193 54 61 77 68 242 74 l148 5 -1
130 c-1 71 -3 130 -4 131 -7 6 -196 8 -262 3z m-365 -1529 c0 -5 -7 -10 -16
-10 -8 0 -12 5 -9 10 3 6 10 10 16 10 5 0 9 -4 9 -10z m103 3 c-7 -2 -21 -2
-30 0 -10 3 -4 5 12 5 17 0 24 -2 18 -5z m-6 -75 c-3 -8 -6 -5 -6 6 -1 11 2
17 5 13 3 -3 4 -12 1 -19z m-92 2 c3 -5 1 -10 -4 -10 -6 0 -11 5 -11 10 0 6 2
10 4 10 3 0 8 -4 11 -10z"/>
<path d="M3310 5052 l0 -469 -54 -12 c-43 -9 -63 -21 -90 -51 -45 -50 -51 -73
-51 -190 1 -69 5 -104 17 -126 26 -48 84 -93 128 -100 l40 -7 0 -143 0 -144
140 0 140 0 0 221 0 221 48 -41 c26 -22 133 -124 237 -225 l190 -185 190 -1
c104 0 185 4 180 8 -6 4 -37 28 -70 52 -33 25 -178 163 -323 307 l-262 263 82
78 c169 161 290 265 349 300 32 20 51 22 162 22 l126 0 3 -412 c3 -401 4 -414
25 -453 30 -57 78 -99 148 -132 55 -25 72 -28 198 -31 l137 -4 0 132 0 132
-27 -6 c-16 -3 -54 -9 -85 -13 -56 -6 -58 -5 -93 30 l-35 35 0 366 0 366 145
0 146 0 -3 117 -3 116 -142 -2 -143 -2 0 205 0 206 -125 0 -125 0 -2 -201 -3
-202 -115 -1 -115 -1 0 -50 0 -50 -146 -7 -145 -6 -70 -72 c-146 -152 -325
-320 -340 -320 -8 0 -13 262 -14 743 l0 207 -125 0 -125 0 0 -468z m1344 -178
l-6 -22 -21 22 c-22 21 -22 21 -2 27 26 8 36 -1 29 -27z m-134 11 c0 -8 5 -15
10 -15 6 0 10 7 10 15 0 9 9 15 25 15 16 0 25 -6 25 -16 0 -10 -6 -14 -14 -11
-8 3 -20 0 -26 -8 -9 -11 -17 -11 -36 -3 -26 12 -33 38 -9 38 8 0 15 -7 15
-15z m100 -65 c0 -5 -9 -10 -20 -10 -11 0 -20 5 -20 10 0 6 9 10 20 10 11 0
20 -4 20 -10z m45 -55 c0 -15 -8 -20 -37 -21 -43 -3 -44 -2 -20 26 21 26 57
23 57 -5z m-78 9 c-3 -3 -12 -4 -19 -1 -8 3 -5 6 6 6 11 1 17 -2 13 -5z m-43
-10 c27 -10 19 -32 -9 -26 -14 2 -25 11 -25 18 0 15 10 17 34 8z m116 -44 c0
-5 -4 -10 -10 -10 -5 0 -10 5 -10 10 0 6 5 10 10 10 6 0 10 -4 10 -10z m-35
-10 c-3 -5 -10 -10 -16 -10 -5 0 -9 5 -9 10 0 6 7 10 16 10 8 0 12 -4 9 -10z
m-45 -15 c0 -3 -11 -10 -25 -15 -14 -5 -25 -15 -25 -21 0 -7 10 -9 25 -7 17 4
25 1 25 -8 0 -15 -37 -19 -57 -6 -16 10 -5 50 16 55 25 7 41 8 41 2z m41 -28
c-1 -12 -15 -9 -19 4 -3 6 1 10 8 8 6 -3 11 -8 11 -12z m39 -7 c0 -5 -4 -10
-10 -10 -5 0 -10 5 -10 10 0 6 5 10 10 10 6 0 10 -4 10 -10z m5 -107 c3 -101
1 -96 30 -89 14 4 25 2 25 -3 0 -12 -38 -18 -75 -11 -29 5 -30 7 -32 65 -1 47
0 54 7 32 5 -16 6 -35 4 -42 -3 -8 -1 -22 4 -31 8 -14 12 -3 17 47 4 36 6 74
5 85 -3 28 -1 38 6 31 4 -4 8 -42 9 -84z m-100 47 c-28 -12 -45 -12 -45 0 0 6
15 10 33 9 27 0 29 -2 12 -9z m-1215 -20 c0 -5 -4 -10 -10 -10 -5 0 -10 5 -10
10 0 6 5 10 10 10 6 0 10 -4 10 -10z m-50 -50 c0 -18 8 -20 137 -22 101 -2
137 -6 141 -16 3 -10 -24 -12 -134 -10 l-139 3 -3 -162 c-3 -183 -3 -182 -70
-134 -57 42 -86 120 -79 215 4 59 8 72 34 98 25 25 61 41 106 47 4 1 7 -8 7
-19z m1245 0 c-3 -5 -10 -10 -16 -10 -5 0 -9 5 -9 10 0 6 7 10 16 10 8 0 12
-4 9 -10z m18 -67 c-7 -2 -19 -2 -25 0 -7 3 -2 5 12 5 14 0 19 -2 13 -5z
m-985 -48 c1 -25 -2 -45 -8 -45 -5 0 -10 20 -10 45 0 25 4 45 8 45 5 0 10 -20
10 -45z m-148 -8 c0 -12 -5 -17 -14 -14 -8 3 -16 1 -18 -5 -3 -7 -11 -6 -25 3
-28 17 -14 36 27 36 23 0 30 -5 30 -20z m47 -17 c-8 -12 -12 -31 -10 -43 5
-18 3 -20 -8 -9 -7 6 -24 12 -38 13 l-26 1 28 11 c15 6 27 18 27 27 0 22 22
42 33 31 6 -6 3 -18 -6 -31z m56 20 c3 -13 0 -20 -8 -20 -17 0 -28 17 -20 30
10 16 22 12 28 -10z m1167 -22 c0 -5 -7 -11 -15 -14 -8 -4 -12 -10 -9 -15 3
-5 -6 -14 -20 -21 -30 -13 -29 -9 -27 -105 1 -47 -2 -73 -9 -73 -10 0 -13 55
-10 182 0 36 -1 38 -30 35 -36 -4 -53 -17 -22 -17 22 0 30 -24 13 -35 -10 -5
-51 45 -51 63 0 6 36 10 90 9 50 0 90 -4 90 -9z m-1175 -28 c-3 -5 -12 -10
-20 -10 -8 0 -17 5 -20 10 -4 6 5 10 20 10 15 0 24 -4 20 -10z m-155 -13 c-27
-15 -36 -14 -25 2 3 6 16 11 28 11 21 0 21 -1 -3 -13z m250 -1 c0 -3 -4 -8
-10 -11 -5 -3 -10 -1 -10 4 0 6 5 11 10 11 6 0 10 -2 10 -4z m-30 -31 c0 -26
-14 -33 -25 -15 -9 14 1 40 15 40 5 0 10 -11 10 -25z m-191 -2 c-3 -36 2 -42
31 -41 25 1 30 5 31 27 l1 26 10 -27 c12 -35 28 -36 28 -3 0 14 5 25 11 25 7
0 9 -10 5 -24 -5 -22 -3 -25 18 -23 14 1 26 -2 28 -8 3 -11 -205 -20 -230 -10
-11 4 -12 8 -2 20 9 11 16 12 25 5 10 -8 15 -4 20 20 7 32 28 42 24 13z m31
-9 c0 -8 -4 -12 -10 -9 -5 3 -10 10 -10 16 0 5 5 9 10 9 6 0 10 -7 10 -16z
m1254 7 c11 -4 15 -10 10 -13 -10 -6 -54 8 -54 17 0 7 21 5 44 -4z m-1044 -11
c0 -5 -9 -10 -20 -10 -11 0 -20 5 -20 10 0 6 9 10 20 10 11 0 20 -4 20 -10z
m924 -31 c-27 -11 -44 -11 -44 0 0 12 30 19 49 12 11 -3 10 -6 -5 -12z m116 0
c0 -11 -27 -12 -34 0 -3 4 -3 11 0 14 8 8 34 -3 34 -14z m-110 -39 c0 -5 -7
-10 -16 -10 -8 0 -12 5 -9 10 3 6 10 10 16 10 5 0 9 -4 9 -10z m127 4 c-3 -3
-12 -4 -19 -1 -8 3 -5 6 6 6 11 1 17 -2 13 -5z m-16 -57 c-16 -16 -26 0 -10
19 9 11 15 12 17 4 2 -6 -1 -17 -7 -23z m-105 8 c18 -15 18 -15 -10 -13 -16 2
-31 9 -34 16 -5 17 20 15 44 -3z m-1086 -16 c0 -5 -37 -9 -82 -9 -50 0 -78 4
-72 9 19 19 154 19 154 0z m1220 -34 c-13 -16 -110 -22 -110 -7 0 15 7 17 66
20 50 2 55 1 44 -13z m-140 -5 c0 -5 -9 -10 -19 -10 -11 0 -23 5 -26 10 -4 6
5 10 19 10 14 0 26 -4 26 -10z m-1123 -92 c-2 -18 3 -23 23 -23 37 0 30 -19
-7 -21 -31 -1 -33 1 -33 33 0 18 4 33 10 33 5 0 9 -10 7 -22z m-5 -130 c-9 -9
-12 -7 -12 12 0 19 3 21 12 12 9 -9 9 -15 0 -24z m-69 7 c-3 -9 -8 -14 -10
-11 -3 3 -2 9 2 15 9 16 15 13 8 -4z m2 -35 c3 -5 1 -10 -4 -10 -6 0 -11 5
-11 10 0 6 2 10 4 10 3 0 8 -4 11 -10z m75 -11 c0 -11 -4 -17 -10 -14 -5 3
-10 13 -10 21 0 8 5 14 10 14 6 0 10 -9 10 -21z m60 1 c0 -5 -6 -10 -14 -10
-8 0 -18 5 -21 10 -3 6 3 10 14 10 12 0 21 -4 21 -10z"/>
<path d="M4635 4369 c-4 -6 -5 -13 -2 -16 7 -7 27 6 27 18 0 12 -17 12 -25 -2z"/>
<path d="M7310 4660 l0 -860 129 0 c108 0 130 3 135 16 3 9 6 99 6 200 l0 185
23 -2 c12 -1 66 -1 119 -1 l98 2 -1 116 c0 64 1 117 3 119 2 1 22 5 46 9 37 5
42 4 42 -13 0 -10 7 -21 15 -25 10 -3 15 1 15 14 0 24 17 35 34 21 7 -6 21 -8
30 -5 12 5 19 0 23 -16 4 -16 8 -18 14 -8 7 10 9 9 9 -4 0 -10 -7 -18 -16 -18
-11 0 -14 -6 -9 -20 5 -15 0 -22 -20 -30 -14 -5 -37 -10 -51 -10 -19 0 -24 5
-24 24 0 43 -15 36 -26 -11 -13 -55 -13 -55 92 -51 l79 3 3 95 c4 126 -2 160
-28 153 -23 -6 -26 -19 -7 -26 54 -19 -158 -37 -283 -24 -41 5 -99 6 -127 3
l-53 -5 0 32 c0 69 64 153 147 193 71 35 180 37 248 4 77 -37 116 -97 130
-203 l6 -49 125 3 124 3 0 61 c0 83 -33 208 -71 266 -66 104 -161 166 -294
194 -145 30 -279 -3 -372 -91 -32 -30 -59 -54 -60 -54 -2 0 -3 151 -3 335 l0
335 -125 0 -125 0 0 -860z m191 43 c2 -10 3 -89 1 -175 -3 -133 -5 -158 -18
-158 -11 0 -13 6 -8 23 8 23 12 249 6 280 -5 20 -52 24 -52 5 0 -10 -2 -10 -9
0 -5 8 -20 12 -36 10 -16 -2 -30 2 -32 9 -3 8 16 13 64 16 37 2 71 4 74 5 4 1
8 -6 10 -15z m-124 -90 c-3 -10 -5 -4 -5 12 0 17 2 24 5 18 2 -7 2 -21 0 -30z
m69 -20 c-10 -10 -19 5 -10 18 6 11 8 11 12 0 2 -7 1 -15 -2 -18z m-56 -167
c0 -3 -4 -8 -10 -11 -5 -3 -10 -1 -10 4 0 6 5 11 10 11 6 0 10 -2 10 -4z m68
-44 c2 -8 -11 -12 -42 -12 -40 0 -63 10 -51 22 10 9 89 1 93 -10z m168 -47
c15 -14 33 -25 40 -25 8 0 15 -7 15 -15 4 -59 4 -60 -26 -62 -25 -2 -27 -1
-10 7 18 8 17 9 -7 9 -14 1 -28 -4 -30 -11 -2 -6 -10 -8 -16 -4 -14 9 -17 126
-3 126 6 0 22 -11 37 -25z m169 15 c4 -6 -5 -10 -20 -10 -15 0 -24 4 -20 10 3
6 12 10 20 10 8 0 17 -4 20 -10z m-60 -60 c10 -11 24 -20 32 -20 7 0 13 -7 13
-16 0 -11 -6 -14 -21 -9 -24 8 -59 40 -59 55 0 16 15 12 35 -10z m5 -56 c0 -2
-9 -4 -21 -4 -11 0 -18 4 -14 10 5 8 35 3 35 -6z m-217 -82 c3 -4 3 -19 0 -33
-4 -23 -10 -26 -36 -25 -30 2 -42 20 -14 22 32 3 37 5 37 14 0 6 -24 10 -60 8
-33 -1 -60 -6 -60 -10 0 -4 9 -8 20 -8 11 0 20 -7 20 -15 0 -17 -16 -20 -25
-5 -4 6 -11 8 -16 5 -9 -6 -30 35 -23 46 5 10 152 11 157 1z m-136 -88 c-9 -9
-28 6 -21 18 4 6 10 6 17 -1 6 -6 8 -13 4 -17z m86 9 c-7 -2 -19 -2 -25 0 -7
3 -2 5 12 5 14 0 19 -2 13 -5z m42 -3 c3 -5 1 -10 -4 -10 -6 0 -11 5 -11 10 0
6 2 10 4 10 3 0 8 -4 11 -10z m-27 -39 c10 -6 7 -10 -13 -15 -32 -8 -46 1 -25
14 18 12 22 12 38 1z m-98 -11 c0 -5 -5 -10 -11 -10 -5 0 -7 5 -4 10 3 6 8 10
11 10 2 0 4 -4 4 -10z m40 6 c0 -11 -19 -15 -25 -6 -3 5 1 10 9 10 9 0 16 -2
16 -4z m44 -41 c3 -8 1 -15 -4 -15 -6 0 -10 7 -10 15 0 8 2 15 4 15 2 0 6 -7
10 -15z m38 -10 c-2 -14 -9 -25 -14 -25 -6 0 -7 7 -4 16 3 9 6 20 6 25 0 5 4
9 9 9 4 0 6 -11 3 -25z m-118 -2 c4 -9 3 -20 -2 -25 -11 -11 -36 17 -27 32 9
15 22 12 29 -7z m46 -3 c0 -5 -4 -10 -10 -10 -5 0 -10 5 -10 10 0 6 5 10 10
10 6 0 10 -4 10 -10z"/>
<path d="M2870 5318 c-100 -67 -89 -227 20 -285 53 -28 89 -29 140 -3 55 28
84 86 78 157 -8 88 -62 143 -150 151 -44 3 -59 0 -88 -20z"/>
<path d="M5410 4966 c-109 -33 -176 -72 -251 -147 -48 -48 -78 -88 -108 -150
-59 -121 -75 -192 -68 -314 12 -245 152 -427 387 -507 82 -28 281 -31 372 -6
87 24 183 83 266 163 l75 71 -52 28 c-29 15 -75 43 -102 62 l-50 35 -45 -40
c-86 -75 -190 -104 -321 -89 -121 13 -213 93 -238 206 l-7 32 426 0 426 0 0
103 c0 56 -7 132 -14 168 -41 193 -191 350 -377 394 -95 22 -228 19 -319 -9z
m262 -222 c55 -18 138 -89 162 -138 31 -66 45 -63 -269 -65 -316 -2 -303 -5
-268 62 44 85 105 134 193 153 60 14 110 10 182 -12z"/>
<path d="M6660 4966 c-142 -42 -245 -117 -319 -230 -69 -107 -95 -201 -95
-351 -1 -99 3 -131 22 -186 83 -241 269 -371 532 -371 113 0 169 12 256 54 67
33 164 116 164 141 0 8 -39 48 -86 87 l-87 73 -26 -17 c-14 -9 -54 -31 -89
-48 -52 -25 -75 -30 -137 -31 -185 -1 -295 132 -283 343 8 140 63 231 173 287
91 47 247 30 325 -35 l33 -28 81 84 c45 46 82 90 84 97 4 16 -58 65 -123 97
-122 61 -291 75 -425 34z"/>
<path d="M2810 4380 l0 -570 135 0 135 0 0 404 0 404 -40 -5 c-29 -4 -40 -2
-40 8 0 8 -6 5 -15 -7 -13 -18 -14 -16 -15 24 0 23 5 42 10 42 6 0 10 -9 10
-20 l0 -20 20 20 c23 23 50 26 50 6 0 -8 4 -17 9 -20 6 -4 10 58 10 149 l2
155 -136 0 -135 0 0 -570z m260 340 c0 -5 -3 -10 -7 -10 -5 0 -45 -2 -91 -4
-77 -3 -101 2 -85 18 11 10 183 7 183 -4z m-126 -56 c9 -3 16 -15 16 -27 0
-19 -1 -19 -18 -4 -26 24 -35 21 -28 -8 5 -18 2 -25 -9 -25 -11 0 -15 10 -15
35 0 36 15 44 54 29z m16 -125 c0 -16 -4 -28 -9 -25 -8 5 -3 56 5 56 2 0 4
-14 4 -31z m38 -218 c3 -8 -3 -12 -14 -11 -11 1 -31 2 -46 1 -24 -1 -28 -5
-28 -31 0 -16 -4 -30 -9 -30 -15 0 -22 32 -10 46 9 11 6 14 -15 14 -14 0 -26
4 -26 10 0 5 28 11 63 12 78 5 80 5 85 -11z m2 -42 c0 -5 -10 -9 -21 -9 -18 0
-19 2 -9 15 12 15 30 12 30 -6z m-50 -5 c0 -17 -22 -14 -28 4 -2 7 3 12 12 12
9 0 16 -7 16 -16z m-3 -40 c-3 -3 -12 -4 -19 -1 -8 3 -5 6 6 6 11 1 17 -2 13
-5z m43 -36 c0 -4 -10 -9 -22 -9 -49 -3 -53 -4 -50 -21 4 -22 -16 -24 -24 -3
-12 29 3 41 50 41 25 1 46 -3 46 -8z m-25 -38 c-3 -5 -13 -10 -21 -10 -8 0
-12 5 -9 10 3 6 13 10 21 10 8 0 12 -4 9 -10z m-11 -29 c3 -5 -8 -11 -24 -13
-35 -5 -41 8 -7 15 12 2 23 5 24 6 1 0 4 -3 7 -8z m46 -51 c0 -9 -99 -19 -113
-12 -4 2 -4 9 2 15 10 13 111 10 111 -3z m-9 -103 c-16 -16 -26 0 -10 19 9 11
15 12 17 4 2 -6 -1 -17 -7 -23z m-56 13 c16 -7 12 -9 -18 -9 -23 -1 -36 3 -32
9 7 12 23 12 50 0z m15 -70 c0 -5 -2 -10 -4 -10 -3 0 -8 5 -11 10 -3 6 -1 10
4 10 6 0 11 -4 11 -10z m50 -26 c0 -23 -3 -24 -55 -24 -48 0 -55 2 -55 20 0
22 15 27 23 7 3 -7 18 -12 33 -12 22 1 30 7 32 23 4 29 22 18 22 -14z"/>
<path d="M3015 4640 c4 -6 11 -8 16 -5 14 9 11 15 -7 15 -8 0 -12 -5 -9 -10z"/>
<path d="M8110 4124 l0 -324 130 0 130 0 0 188 c0 104 -3 250 -7 326 l-6 137
-124 -2 -123 -1 0 -324z"/>
<path d="M4002 4368 c3 -73 3 -73 33 -76 29 -4 29 -3 12 15 -12 14 -17 36 -17
76 0 45 -3 57 -15 57 -13 0 -15 -13 -13 -72z"/>
<path d="M4090 4382 c0 -33 -3 -67 -6 -76 -4 -11 -1 -16 10 -16 13 0 16 12 18
60 0 33 1 65 2 72 1 6 -5 13 -11 16 -10 3 -13 -13 -13 -56z"/>
<path d="M7958 4385 c-2 -22 0 -34 6 -32 14 4 21 67 8 67 -6 0 -12 -16 -14
-35z"/>
<path d="M7840 4399 c0 -5 5 -7 10 -4 6 3 10 8 10 11 0 2 -4 4 -10 4 -5 0 -10
-5 -10 -11z"/>
</g>
</svg>
